# xmcd
#
# Track frame offsets: 
#        150
#        32099
#        68403
#        84614
#        100040
#        140108
#        176621
#        196762
#        213347
#
# Disc length: 3014 seconds
#
# Revision: 0
# Processed by: cddbd v1.5.2PL0 Copyright (c) Steve Scherf et al.
# Submitted via: ExactAudioCopy v0.95b3
#
DISCID=750bc409
DTITLE=Jimi Hendrix  - Royal Albert Hall 02-24-69 - Disc 2  FLAC
DYEAR=1900
DGENRE=
TTITLE0=Sunshine Of Your Love
TTITLE1=Bleeding Heart
TTITLE2=Fire
TTITLE3=Little Wing
TTITLE4=Voodoo Child (Slight Return)
TTITLE5=Room Full Of Mirrors
TTITLE6=Purple Haze
TTITLE7=Wild Thing
TTITLE8=Star Spangled Banner and Smashing Of Amps
EXTD=
EXTT0=
EXTT1=
EXTT2=
EXTT3=
EXTT4=
EXTT5=
EXTT6=
EXTT7=
EXTT8=
PLAYORDER=
